<svg preserveAspectRatio="none" width="100%" height="100%" overflow="visible" style="display: block;" viewBox="0 0 45 45" fill="none" xmlns="http://www.w3.org/2000/svg">
<g id="prev">
<path d="M8 0.5H37C41.1421 0.5 44.5 3.85786 44.5 8V37C44.5 41.1421 41.1421 44.5 37 44.5H8C3.85786 44.5 0.5 41.1421 0.5 37V8C0.5 3.85786 3.85786 0.5 8 0.5Z" stroke="var(--stroke-0, #BCBCBC)"/>
<path id="Vector (Stroke)" d="M23.0801 30.2597C22.7597 30.5801 22.2403 30.5801 21.9198 30.2597L14.7403 23.0801C14.4199 22.7597 14.4199 22.2403 14.7403 21.9199L21.9198 14.7403C22.2403 14.4199 22.7597 14.4199 23.0801 14.7403C23.4005 15.0608 23.4005 15.5802 23.0801 15.9006L17.3012 21.6795H29.6795C30.1326 21.6795 30.5 22.0468 30.5 22.5C30.5 22.9532 30.1326 23.3205 29.6795 23.3205H17.3012L23.0801 29.0994C23.4005 29.4198 23.4005 29.9392 23.0801 30.2597Z" fill="var(--fill-0, white)"/>
</g>
</svg>
