<svg preserveAspectRatio="none" width="100%" height="100%" overflow="visible" style="display: block;" viewBox="0 0 45 45" fill="none" xmlns="http://www.w3.org/2000/svg">
<g id="next">
<path d="M8 0.5H37C41.1421 0.5 44.5 3.85786 44.5 8V37C44.5 41.1421 41.1421 44.5 37 44.5H8C3.85786 44.5 0.5 41.1421 0.5 37V8C0.5 3.85786 3.85786 0.5 8 0.5Z" stroke="var(--stroke-0, #BCBCBC)"/>
<path id="Vector (Stroke)" d="M21.9199 14.7403C22.2403 14.4199 22.7597 14.4199 23.0802 14.7403L30.2597 21.9199C30.5801 22.2403 30.5801 22.7597 30.2597 23.0801L23.0802 30.2597C22.7597 30.5801 22.2403 30.5801 21.9199 30.2597C21.5995 29.9392 21.5995 29.4198 21.9199 29.0994L27.6988 23.3205H15.3205C14.8674 23.3205 14.5 22.9532 14.5 22.5C14.5 22.0468 14.8674 21.6795 15.3205 21.6795H27.6988L21.9199 15.9006C21.5995 15.5802 21.5995 15.0608 21.9199 14.7403Z" fill="var(--fill-0, white)"/>
</g>
</svg>
