<svg preserveAspectRatio="none" width="100%" height="100%" overflow="visible" style="display: block;" viewBox="0 0 45 45" fill="none" xmlns="http://www.w3.org/2000/svg">
<g id="Frame 37">
<path d="M0 8C0 3.58172 3.58172 0 8 0H37C41.4183 0 45 3.58172 45 8V37C45 41.4183 41.4183 45 37 45H8C3.58172 45 0 41.4183 0 37V8Z" fill="var(--fill-0, #333333)"/>
<path id="Vector (Stroke)" d="M25.25 13.75C25.25 13.1977 25.6977 12.75 26.25 12.75C26.8023 12.75 27.25 13.1977 27.25 13.75V31.25C27.25 31.8023 26.8023 32.25 26.25 32.25C25.6977 32.25 25.25 31.8023 25.25 31.25V13.75ZM17.75 13.75C17.75 13.1977 18.1977 12.75 18.75 12.75C19.3023 12.75 19.75 13.1977 19.75 13.75V31.25C19.75 31.8023 19.3023 32.25 18.75 32.25C18.1977 32.25 17.75 31.8023 17.75 31.25V13.75Z" fill="var(--fill-0, white)"/>
</g>
</svg>
