<svg width="20" height="20" viewBox="0 0 20 20" fill="none" xmlns="http://www.w3.org/2000/svg">
<path d="M17.9918 0.344583C18.4512 -0.114861 19.196 -0.114861 19.6554 0.344583C20.1149 0.804028 20.1149 1.54876 19.6554 2.0082L11.6636 10L19.6554 17.9918C20.1149 18.4512 20.1149 19.196 19.6554 19.6554C19.196 20.1149 18.4512 20.1149 17.9918 19.6554L10 11.6636L2.0082 19.6554C1.54876 20.1149 0.804028 20.1149 0.344583 19.6554C-0.114861 19.196 -0.114861 18.4512 0.344583 17.9918L8.33638 10L0.344583 2.0082C-0.114861 1.54876 -0.114861 0.804028 0.344583 0.344583C0.804028 -0.114861 1.54876 -0.114861 2.0082 0.344583L10 8.33638L17.9918 0.344583Z" fill="white"/>
</svg>
